<svg width="53" height="53" viewBox="0 0 53 53" fill="none" xmlns="http://www.w3.org/2000/svg">
<g id="Group 83">
<circle id="Ellipse 6" cx="26.5" cy="26.5" r="26.5" fill="black"/>
<path id="Vector" d="M34.875 25.875H28.125V19.125C28.125 18.5062 27.6187 18 27 18C26.3813 18 25.875 18.5062 25.875 19.125V25.875H19.125C18.5062 25.875 18 26.3813 18 27C18 27.6187 18.5062 28.125 19.125 28.125H25.875V34.875C25.875 35.4937 26.3813 36 27 36C27.6187 36 28.125 35.4937 28.125 34.875V28.125H34.875C35.4937 28.125 36 27.6187 36 27C36 26.3813 35.4937 25.875 34.875 25.875Z" fill="white"/>
</g>
</svg>
